<svg viewBox="0 0 40 40" fill="none" xmlns="http://www.w3.org/2000/svg">
<path fill-rule="evenodd" clip-rule="evenodd" d="M9.68667 28.122V36.923H23.3086C26.2549 36.8024 33.1163 34.994 36.991 28.7248C38.1413 27.0771 40.224 22.335 39.3522 16.548C38.7467 12.9111 35.3321 5.08269 26.5173 2.86436C25.6697 2.64333 23.5144 2.22538 21.6739 2.32183H0V11.0023C0.100903 14.378 2.1795 21.9854 9.68667 25.4093C10.6755 25.9519 13.646 27.049 17.6176 27.0972H23.3086C25.2055 26.7155 29.1205 24.7945 29.6049 20.165C29.726 17.4925 28.3093 12.1355 21.6739 12.0873H9.68667V19.4415C8.07223 18.4369 4.84334 15.1737 4.84334 10.1583V7.20457H22.8242C26.1944 7.46579 33.2253 9.95338 34.3877 17.814C34.8518 20.5668 34.3272 26.8923 28.5151 30.1715C27.6676 30.7543 25.3428 31.9197 22.8242 31.9197H14.7116V29.3879C13.6017 29.2071 11.0428 28.7007 9.68667 28.122ZM14.7722 17.2715V22.1542H22.8242C23.4297 21.9533 24.6406 21.1656 24.6406 19.6225C24.6203 18.8388 24.1441 17.2715 22.4004 17.2715H14.7722Z" fill="#1DD736"/>
</svg>